<?xml version="1.0" encoding="iso-8859-1"?>
<!-- Generator: Adobe Illustrator 21.0.0, SVG Export Plug-In . SVG Version: 6.00 Build 0)  -->
<svg version="1.1" id="Capa_1" xmlns="http://www.w3.org/2000/svg" xmlns:xlink="http://www.w3.org/1999/xlink" x="0px" y="0px"
	 viewBox="0 0 260 260" style="enable-background:new 0 0 260 260;" xml:space="preserve">
<g>
	<g id="database-sql_1_">
		<path style="fill:#00D7DF;" d="M69.333,91c-35.88,0-65-9.707-65-21.667v43.333c0,11.96,29.12,21.667,65,21.667s65-9.707,65-21.667
			V69.333C134.333,81.293,105.213,91,69.333,91z"/>
		<path style="fill:#FFEB99;" d="M69.333,134.333c-35.88,0-65-9.707-65-21.667V156c0,11.96,29.12,21.667,65,21.667
			s65-9.707,65-21.667v-43.333C134.333,124.627,105.213,134.333,69.333,134.333z"/>
		<path style="fill:#FFEB99;" d="M69.333,91c35.88,0,65-9.707,65-21.667V26c0,11.964-29.103,21.667-65,21.667s-65-9.702-65-21.667
			v43.333C4.333,81.293,33.453,91,69.333,91z"/>
		<path style="fill:#ACABB1;" d="M229.667,203.667h-15.232l1.577-1.577c10.156-10.121,10.183-26.559,0.062-36.714
			c-7.195-7.219-17.948-9.56-27.492-5.986c-11.237-18.498-34.451-25.792-54.249-17.047l0,0c-8.109,3.56-14.94,9.506-19.582,17.047
			c-13.427-5.028-28.388,1.781-33.416,15.208c-3.574,9.545-1.233,20.298,5.986,27.492l1.577,1.577H73.667c-14.359,0-26,11.641-26,26
			s11.641,26,26,26h156c14.359,0,26-11.641,26-26S244.026,203.667,229.667,203.667C229.667,203.667,229.667,203.667,229.667,203.667
			z M130,195v-4.333H99.667v21.667H130V234H99.667l0,0H130v-21.667H99.667v-21.667H130V195z M169,234h-26v-43.333h30.333V234H169
			l8.667,8.667L169,234z M216.667,234h-30.333v-43.333l0,0V234H216.667L216.667,234z"/>
		<polygon style="fill:#ACABB1;" points="173.333,190.667 143,190.667 143,234 169,234 160.333,225.333 169,234 173.333,234 		"/>
		<ellipse style="fill:#FFEB99;" cx="69.333" cy="26" rx="65" ry="21.667"/>
		<path style="fill:#231F20;" d="M190.667,186.333h-4.333c-2.393,0-4.333,1.94-4.333,4.333V234c0,2.393,1.94,4.333,4.333,4.333
			h30.333c2.393,0,4.333-1.94,4.333-4.333v-4.333h-30.333V186.333z"/>
		<path style="fill:#231F20;" d="M177.667,234v-43.333c0-2.393-1.94-4.333-4.333-4.333H143c-2.393,0-4.333,1.94-4.333,4.333V234
			c0,2.393,1.94,4.333,4.333,4.333h24.206l7.397,7.397l6.127-6.127l-3.61-3.61C177.465,235.384,177.653,234.699,177.667,234z
			 M147.333,229.667V195H169v32.873l-5.603-5.603l-6.127,6.127l1.27,1.27H147.333z"/>
		<path style="fill:#231F20;" d="M130,186.333H99.667c-2.393,0-4.333,1.94-4.333,4.333v26h30.333v13H95.333V234
			c0,2.393,1.94,4.333,4.333,4.333H130c2.393,0,4.333-1.94,4.333-4.333v-26H104v-13h30.333v-4.333
			C134.333,188.273,132.393,186.333,130,186.333z"/>
		<path style="fill:#231F20;" d="M229.667,199.333h-6.036c8.635-14.325,4.022-32.938-10.303-41.573
			c-6.878-4.146-15.121-5.39-22.916-3.459c-8.896-12.564-23.35-20.013-38.744-19.968c-4.398,0.019-8.773,0.645-13,1.859V26
			c0-17.069-34.879-26-69.333-26S0,8.931,0,26v130c0,17.069,34.879,26,69.333,26c2.015,0,4.091-0.043,6.197-0.113
			c-0.403,6.103,1.051,12.186,4.173,17.446h-6.036c-16.753,0-30.333,13.581-30.333,30.333S56.914,260,73.667,260h156
			C246.419,260,260,246.419,260,229.667S246.419,199.333,229.667,199.333z M69.333,8.667C106.366,8.667,130,18.932,130,26
			s-23.634,17.333-60.667,17.333S8.667,33.068,8.667,26S32.301,8.667,69.333,8.667z M8.667,39.243
			C21.142,47.667,45.322,52,69.333,52S117.524,47.667,130,39.243v30.091c0,7.068-23.634,17.333-60.667,17.333
			S8.667,76.401,8.667,69.333V39.243z M8.667,82.576C21.142,91,45.322,95.333,69.333,95.333S117.524,91,130,82.576v30.091
			C130,119.734,106.366,130,69.333,130S8.667,119.734,8.667,112.667V82.576z M69.333,173.333c-37.033,0-60.667-10.266-60.667-17.333
			v-30.091c12.476,8.424,36.656,12.757,60.667,12.757s48.191-4.333,60.667-12.757v13.624c-6.797,3.48-12.655,8.548-17.078,14.772
			c-10.29-2.524-21.152,0.49-28.669,7.956c-3.046,3.085-5.389,6.793-6.868,10.868C74.642,173.251,71.933,173.333,69.333,173.333z
			 M229.667,251.333h-156c-11.966,0-21.667-9.7-21.667-21.667C52,217.7,61.701,208,73.667,208h15.232
			c2.393,0.002,4.335-1.937,4.337-4.33c0.001-1.152-0.457-2.258-1.273-3.071l-1.582-1.573c-8.463-8.429-8.491-22.123-0.063-30.586
			c5.998-6.023,14.968-7.973,22.925-4.986c1.939,0.72,4.117-0.031,5.2-1.794c11.184-18.349,35.126-24.157,53.475-12.973
			c5.296,3.228,9.744,7.676,12.973,12.973c1.083,1.763,3.261,2.514,5.2,1.794c11.183-4.198,23.651,1.464,27.849,12.647
			c2.987,7.958,1.036,16.927-4.986,22.925l-1.582,1.573c-1.694,1.69-1.698,4.434-0.008,6.128c0.814,0.816,1.919,1.274,3.071,1.273
			h15.232c11.966,0,21.667,9.7,21.667,21.667C251.333,241.633,241.633,251.333,229.667,251.333z"/>
	</g>
</g>
<g>
</g>
<g>
</g>
<g>
</g>
<g>
</g>
<g>
</g>
<g>
</g>
<g>
</g>
<g>
</g>
<g>
</g>
<g>
</g>
<g>
</g>
<g>
</g>
<g>
</g>
<g>
</g>
<g>
</g>
</svg>
