<?xml version="1.0" encoding="utf-8"?>
<!-- Generator: Adobe Illustrator 24.1.2, SVG Export Plug-In . SVG Version: 6.00 Build 0)  -->
<svg version="1.1" id="Layer_1" xmlns="http://www.w3.org/2000/svg" xmlns:xlink="http://www.w3.org/1999/xlink" x="0px" y="0px"
	 viewBox="0 0 512 512" style="enable-background:new 0 0 512 512;" xml:space="preserve">
<style type="text/css">
	.st0{fill:#111111;}
</style>
<g>
	<path class="st0" d="M99.09521,68.66885h-0.00011l-76.83002,257.892C4.913,384.80582,48.54474,443.33121,109.3195,443.33121
		h0.00011l74.20288-263.13422C199.30606,124.22613,157.24898,68.66885,99.09521,68.66885z"/>
	<path class="st0" d="M499.55554,68.66885h-0.00009c-68.75034,0-129.3334,45.16576-148.96262,111.05431l-78.5329,263.60803h0.00012
		c72.06772,0,135.35141-47.90604,154.91141-117.26859L499.55554,68.66885z"/>
	<path class="st0" d="M357.26416,68.66879c-68.75037,0-129.33337,45.16577-148.96255,111.05437l-78.53293,263.60797h121.84218
		l105.6534-374.66235H357.26416z M277.39407,147.96158c-6.80219,0-12.3165-5.51428-12.3165-12.31656
		c0-6.8022,5.51431-12.31649,12.3165-12.31649c6.80228,0,12.31656,5.51429,12.31656,12.31649
		C289.71063,142.4473,284.19635,147.96158,277.39407,147.96158z"/>
</g>
</svg>
