<?xml version="1.0" encoding="utf-8"?>
<!-- Generator: Adobe Illustrator 24.1.2, SVG Export Plug-In . SVG Version: 6.00 Build 0)  -->
<svg version="1.1" id="Layer_1" xmlns="http://www.w3.org/2000/svg" xmlns:xlink="http://www.w3.org/1999/xlink" x="0px" y="0px"
	 viewBox="0 0 1024 512" style="enable-background:new 0 0 1024 512;" xml:space="preserve">
<style type="text/css">
	.st0{fill:#111111;}
</style>
<g>
	<g>
		<path class="st0" d="M406.36267,217.56456c0-6.33154-1.19116-11.85393-3.56979-16.56813
			c-2.38025-4.71527-5.23233-7.07243-8.55362-7.07243l-2.9635,1.88635c-1.97617,1.16753-4.40051,3.29973-7.27365,6.39772
			c-2.87515,3.09799-5.2092,6.57956-7.00455,10.43944c7.63196,9.5199,11.4498,17.91533,11.4498,25.18947
			c-0.80814,7.36458-2.85211,14.95187-6.12924,22.76413c-3.27875,7.81326-6.8696,14.14374-10.77573,18.99353
			c-3.90662,4.84875-7.23001,7.2731-9.96808,7.2731c-2.74017,0-4.1084-2.35712-4.1084-7.07132
			c0-4.71426,0.89642-14.34552,2.69391-28.89388c1.79544-14.54729,2.69394-24.76183,2.69394-30.64462
			c0-5.87965-0.49445-10.39212-1.48123-13.53737v-0.13454c-10.4184,1.25894-17.91531,3.09799-22.49554,5.52345
			c0,0.09036,0.2023,0.80807,0.60635,2.15425c0.40408,1.34724,0.62735,2.11121,0.67361,2.29092
			c0.0441,0.18074,0.22278,0.85439,0.53854,2.01978c0.31369,1.16858,0.49286,2.08809,0.53909,2.76173
			c0.04419,0.67358,0.13455,1.6835,0.26904,3.03069c0.13504,1.34724,0.22333,2.74074,0.26956,4.17622
			c0.04413,1.43654,0.06726,4.13097,0.06726,8.08122c0,3.95338-0.98886,16.07632-2.96347,36.3698
			c-2.24573,3.41428-5.0069,6.57956-8.28406,9.49677c-3.2793,2.91934-5.77094,4.37689-7.47592,4.37689
			c-2.87473,0-4.31021-2.64713-4.31021-7.94669c0-5.29749,0.33682-13.13388,1.00992-23.50603
			c0.67358-10.37114,1.01041-18.07091,1.01041-23.10039c0-17.15135-6.60004-25.72862-19.80115-25.72862
			c-8.9808,0-16.70264,3.077-23.1687,9.22774c-6.46552,6.15187-9.69855,12.50546-9.69855,19.05977
			c0,7.994,2.91727,14.36864,8.75592,19.12808c5.83606,4.76045,13.0661,7.67766,21.68698,8.75481l-0.80814,22.89969
			c0,5.1188,1.43497,9.42847,4.31015,12.93103c2.87308,3.50256,6.46552,5.25336,10.77621,5.25336
			c4.31018,0,8.62088-1.52798,12.93106-4.57971c4.3107-3.05176,8.39594-7.2742,12.25793-12.66208
			c0.08826,5.03061,1.3472,9.15945,3.77161,12.39304c2.4249,3.23248,5.2533,4.84875,8.48633,4.84875
			c6.28479,0,12.90793-3.25354,19.86844-9.76584c6.95837-6.51016,13.01981-14.34552,18.18488-23.50497
			c5.16241-9.16043,9.44998-18.70032,12.8638-28.62479C404.65555,232.02356,406.36267,223.89503,406.36267,217.56456z
			 M299.14017,253.73152c-6.01733,0-11.29376-1.70456-15.82724-5.11884c-4.53561-3.41113-6.80234-7.72183-6.80234-12.93103
			c0-5.20712,1.90683-9.42952,5.72467-12.662c3.8157-3.23253,7.18323-4.84874,10.10257-4.84874
			c2.91727,0,4.89343,1.00986,5.92697,3.0307c1.0314,2.01978,1.54895,5.81554,1.54895,11.38205
			C299.81375,238.15225,299.58835,245.20155,299.14017,253.73152z"/>
		<path class="st0" d="M441.49139,246.45737c-3.41379-2.60306-7.76859-3.90613-13.06607-3.90613
			c-8.62085,0-16.32169,3.25667-23.10089,9.76579c-6.78186,6.51225-10.17038,15.37956-10.17038,26.60402
			c0,7.81219,1.79544,13.91989,5.38837,18.31888c3.5903,4.40106,8.48584,6.60056,14.68234,6.60056
			c6.19647,0,11.89798-1.43762,17.10718-4.3107c1.8858-1.07715,3.90613-2.42441,6.06146-4.04065
			c2.15536-1.61624,3.59085-2.91724,4.31018-3.9061l-3.23248-4.3107l-2.02084,1.61624
			c-1.34671,1.07822-3.23251,2.15536-5.65741,3.23358c-2.42435,1.07709-4.7142,1.61621-6.8696,1.61621
			c-6.28683,0-9.74475-4.22034-10.37213-12.66202l3.23303-0.40457c5.29749-0.80814,11.13403-2.78271,17.51129-5.92694
			c3.14212-1.61627,5.81293-3.90613,8.0145-6.8696c2.19949-2.96344,3.30029-6.62155,3.30029-10.97849
			C446.61023,252.54295,444.90308,249.06351,441.49139,246.45737z M425.32733,268.68338
			c-2.69394,3.05383-6.33099,4.98428-10.91071,5.79242c0-5.02844,0.91949-10.43939,2.76117-16.23181
			c1.83954-5.79247,4.46622-8.68762,7.88-8.68762c2.87308,0,4.3107,2.42441,4.3107,7.27313
			C429.3685,261.67926,428.02124,265.63162,425.32733,268.68338z"/>
		<path class="st0" d="M529.44977,232.7182c2.87256-3.95024,4.31018-7.81224,4.31018-11.58383s-1.90894-7.13966-5.72467-10.10313
			c-3.81781-2.96346-9.18304-4.44522-16.09677-4.44522c-6.91635,0-13.13336,1.97672-18.65622,5.92696
			c-5.52289,3.95238-8.28406,9.34123-8.28406,16.16457c0,4.22141,1.36774,9.04808,4.1084,14.48006
			c2.73807,5.4341,5.72464,10.32802,8.95767,14.68283c3.23248,4.35696,6.21698,9.02496,8.95767,14.00821
			c2.73804,4.98428,4.1084,9.18362,4.1084,12.59476c0,6.19699-2.91934,9.38535-8.75589,9.564
			c-3.95236-10.23761-8.21683-16.83716-12.79654-19.8006c-2.60562,0.80814-5.52289,3.05386-8.75537,6.73511
			c-3.23303,3.68222-5.34424,7.00406-6.33102,9.9675c0.44818,2.24576,2.71497,4.96332,6.80234,8.1496
			c4.0853,3.18622,9.27136,4.78149,15.55823,4.78149c9.33807,0,17.28589-2.5127,23.84174-7.54324
			c6.55432-5.02841,9.83362-11.85385,9.83362-20.47418c0-3.4122-1.3031-7.81326-3.90662-13.20111
			c-2.60571-5.38788-4.67017-9.20363-6.19598-11.44931c-1.52856-2.24362-2.82898-4.0858-3.90662-5.52341l4.31067-3.50156
			C523.70148,239.81371,526.57458,236.67052,529.44977,232.7182z M515.50781,235.54712
			c-1.93207,1.43761-3.34656,2.38028-4.24295,2.82898l-2.02029-2.55995c-1.25894-1.70451-2.53839-3.83884-3.83939-6.39772
			c-1.30255-2.55994-1.95303-4.80356-1.95303-6.73509c0-1.93042,1.01041-3.59081,3.0307-4.9843
			c2.02084-1.39136,4.53348-2.08807,7.54321-2.08807c3.00757,0,5.59015,0.62947,7.74548,1.88631
			c2.1554,1.25793,3.23303,2.80797,3.23303,4.647c0,1.84113-0.495,3.59294-1.48175,5.25333
			c-0.98938,1.66246-2.08813,3.07693-3.30023,4.24345C519.01038,232.80856,517.43829,234.11163,515.50781,235.54712z"/>
		<path class="st0" d="M696.03369,242.55124c-3.32288,0-6.5564,1.3472-9.69855,4.04167
			c-3.14423,2.69337-5.20917,4.84874-6.19598,6.46497c0-4.21927-0.53906-7.49693-1.61627-9.83304
			c-10.68842,0-18.45441,0.6736-23.30316,2.02083l-0.13556,1.75076l1.21271,1.61626
			c2.51263,3.32391,3.77161,6.37778,3.77161,9.16051c0,1.61621-1.21271,8.03711-3.63702,19.26151
			c-1.61041,7.45706-2.6828,12.98965-3.22369,16.62216l-2.24512-4.36368l-1.61621,0.80814
			c-3.41327,1.70657-5.38788,2.5589-5.927,2.5589c-0.71985,0-1.07715-1.72769-1.07715-5.1861
			c0-3.45529,0.67365-9.24771,2.01978-17.37625c1.34723-8.12646,3.14319-15.91553,5.38892-23.37047
			c-7.09546-2.5137-12.75238-3.77159-16.97272-3.77159c-0.80811,2.15538-1.30304,3.32289-1.48169,3.50156
			c-4.6701-2.60306-9.51941-3.90613-14.54779-3.90613c-7.00464,0-12.97729,3.48157-17.91541,10.43939
			c-1.63806,2.30838-2.99823,4.90176-4.0929,7.76767c-2.78217,0.4798-5.5401,0.78839-8.27228,0.92096
			c0-13.37971-3.54822-20.07069-10.64117-20.07069c-1.88574,0-3.5929,0.40463-5.11877,1.21275l-4.8493-0.27008
			c-9.42896,0-16.81665,3.59293-22.15826,10.77672c-5.34424,7.18486-8.01501,15.75999-8.01501,25.72758
			c0,7.81219,1.75128,13.89783,5.25336,18.25162c3.50256,4.35696,8.35181,6.53333,14.54779,6.53333
			c8.17059,0,14.86151-3.47842,20.07074-10.43945c5.20703-6.95782,8.66498-15.15363,10.37213-24.58316l2.69391-0.53806
			c1.48505-0.29175,2.86902-0.59662,4.17419-0.9118c-0.91309,4.23608-1.37256,8.9379-1.37256,14.11191
			c0,7.72498,1.59308,13.38187,4.78149,16.97272c3.18677,3.59293,7.0929,5.38785,11.71936,5.38785
			c4.6239,0,9.80994-2.5127,15.55774-7.54324c0.89691,5.03055,4.12939,7.54324,9.69904,7.54324
			c2.87207,0,6.10559-0.92163,9.69855-2.76172c3.58978-1.83905,6.03833-3.29977,7.34039-4.37689
			c1.16882-0.96866,2.12891-1.78256,2.90088-2.46164c-0.21729,1.54269-0.32837,2.70547-0.32837,3.4715
			c0,2.5589,0.08832,4.19934,0.27008,4.91705h0.94263c9.33813,0,15.57928-0.62735,18.72345-1.88629
			c-0.09033-0.80814-0.13446-2.19949-0.13446-4.17621c0-5.4761,2.06494-17.51074,6.19592-36.09973
			c1.70459-1.88522,3.68121-3.23248,5.92694-4.04059c0.71777,0,1.79492,1.21164,3.23248,3.63708
			c1.43555,2.42435,2.19952,3.63705,2.28986,3.63705c2.1554-0.35834,4.37799-1.30093,6.66791-2.82892
			c2.28986-1.52591,3.81567-2.71548,4.57971-3.56985c0.76184-0.85226,1.36823-1.54898,1.81903-2.08809
			C703.30786,246.77365,700.88348,242.55124,696.03369,242.55124z M572.93085,284.98248
			c-3.0097,4.84875-6.39825,7.27417-10.16986,7.27417c-4.94019,0-7.40869-4.84982-7.40869-14.54837
			c0-6.82333,0.98682-12.88477,2.9635-18.18433c1.97406-5.2975,4.08527-8.66553,6.33099-10.10313
			c0.26898-0.17867,0.6731-0.26903,1.21216-0.26903c0.53857,0,0.9873,0.09036,1.34729,0.26903l-0.67365,1.34718
			c-1.16803,2.51584-1.75128,5.2092-1.75128,8.08234c0,7.18585,4.80298,10.77567,14.41327,10.77567
			C578.02606,275.01492,575.93848,280.13269,572.93085,284.98248z M623.21429,289.83124
			c-2.69397,1.70764-5.11835,2.55994-7.27368,2.55994c-3.32336,0-4.98376-3.81577-4.98376-11.44928
			c0-7.63254,1.1449-14.6156,3.43475-20.94608c2.28986-6.33154,5.05103-9.49683,8.28406-9.49683
			c1.8858,0,4.17566,0.58534,6.87012,1.75079C625.95282,264.64276,623.84161,277.17023,623.21429,289.83124z"/>
		<path class="st0" d="M849.01086,231.10194c3.14215,0,5.9942-1.12234,8.5531-3.36809
			c2.55994-2.24361,3.8399-4.82562,3.8399-7.74495c0-2.91722-0.8996-5.27437-2.69446-7.07137
			c-1.797-1.79593-4.31067-2.69443-7.54321-2.69443c-3.23248,0-6.08459,1.12447-8.55408,3.36807
			c-2.47064,2.2457-3.70337,4.84874-3.70337,7.81219s0.89642,5.32062,2.69342,7.07137
			C843.39813,230.22656,845.86664,231.10194,849.01086,231.10194z"/>
		<path class="st0" d="M857.09314,290.10132c-3.5929,1.70657-5.6579,2.5589-6.19598,2.5589
			c-0.80914,0-1.21271-1.41449-1.21271-4.2424c0-2.82898,1.21271-8.84418,3.63715-18.05093
			c2.42432-9.20355,3.63702-15.69275,3.63702-19.46434c0-3.77158-0.58533-6.33046-1.75177-7.6777
			c-10.68744,0-18.4093,0.6736-23.1687,2.02083l-0.13452,1.75076l1.21271,1.61626c0.46619,0.66388,0.87262,1.3392,1.24573,2.02089
			c-4.21796-0.85681-10.17963-1.57594-17.90631-2.15543c4.39795-19.84473,6.59949-32.55086,6.59949-38.1205
			c0-1.79492-0.13446-3.05176-0.40356-3.77164c-7.27411,0-14.50415,1.39348-21.68689,4.17621
			c0.17865,0.80814,0.26904,1.97565,0.26904,3.5015c0,8.26413-1.52802,19.48853-4.57971,33.67537
			c-6.64685,0.36046-12.8869,1.12442-18.72345,2.29088c0.71771-5.92691,1.07812-10.9995,1.07812-15.22191
			c0-17.86913-5.88275-26.80579-17.6463-26.80579c-5.83862,0-11.90009,1.77493-18.18439,5.32062
			c-6.28735,3.5488-11.04572,7.29727-14.27826,11.24858l3.367,4.84874c3.23254-2.78271,6.68884-5.00534,10.37213-6.66785
			c3.68127-1.66039,6.64478-2.49159,8.89044-2.49159c2.24365,0,3.883,1.07715,4.91602,3.23248
			c1.03192,2.15536,1.54901,5.85966,1.54901,11.11304c0,5.25331-0.4035,12.01147-1.21167,20.27242
			c-9.07117,3.862-16.56812,8.9577-22.49506,15.28818c-5.92694,6.33154-8.89044,13.08972-8.89044,20.2735
			c0,5.02951,1.48175,9.09219,4.44525,12.19019c2.96344,3.09799,6.77917,4.64697,11.44928,4.64697
			c4.66797,0,8.97864-1.37033,12.93103-4.10785c3.95129-2.73862,7.3183-6.44296,10.10315-11.11304
			c5.38782-9.24875,9.3822-20.2052,11.9884-32.86725c4.57971-1.25684,10.68524-1.97458,18.31885-2.15533
			c-4.04059,17.96158-6.06146,28.98425-6.06146,33.06897c0,4.08792,1.07819,7.36459,3.23358,9.8331
			c2.1543,2.46954,5.5896,3.70435,10.30383,3.70435c4.71527,0,10.30487-1.97357,16.77094-5.92697l-2.02087-5.2533
			c-1.34717,0.45081-2.6051,0.67358-3.77155,0.67358c-2.15533,0-3.23248-2.22263-3.23248-6.66782
			c0-4.44522,1.57001-14.211,4.71417-29.29742c8.52997,0.53912,15.71375,1.70663,21.55243,3.50262
			c0.16443-0.27713,0.3139-0.54562,0.46252-0.8136c-0.19275,2.78091-1.30249,7.96274-3.3335,15.56262
			c-2.24573,8.39862-3.36804,14.23416-3.36804,17.51181c0,3.27872,0.8974,5.88278,2.69446,7.81219
			c1.79486,1.93048,4.26447,2.89627,7.40863,2.89627c3.14215,0,6.55432-0.92163,10.23767-2.76172
			c3.68121-1.83905,6.19598-3.29977,7.54315-4.37689c1.34729-1.07822,2.42444-1.97464,3.23254-2.69449l-2.28986-4.7142
			L857.09314,290.10132z M748.43146,287.13782c-2.78485,4.93912-5.61377,7.40869-8.48688,7.40869
			c-1.25787,0-2.35712-0.53912-3.29974-1.61627c-0.94269-1.07816-1.41449-2.60406-1.41449-4.58072
			c0-4.21927,2.065-8.62039,6.19592-13.2001c4.13-4.57974,8.70972-7.94775,13.74023-10.10312
			C753.4588,274.83521,751.21313,282.19977,748.43146,287.13782z"/>
		<path class="st0" d="M914.60974,243.35938c-5.29956,0-10.23767,0.80814-14.81738,2.4254
			c-4.31067-2.15536-8.6676-3.23354-13.06659-3.23354c-7.81226,0-14.09857,3.52568-18.85797,10.57393
			c-4.76044,7.05138-7.13861,15.87456-7.13861,26.46947c0,8.08228,1.50275,13.96408,4.51251,17.64529
			c3.00757,3.68329,6.9137,5.52341,11.71832,5.52341c4.80353,0,9.81097-1.97461,15.02014-5.92697l-2.02081,10.7757l-5.79242,1.3472
			c-3.77161,0.98679-7.58948,2.82898-11.44934,5.5224c-3.862,2.69443-5.79242,5.5444-5.79242,8.55411
			c0,3.0076,0.89636,5.32059,2.69446,6.93686c1.79486,1.61621,4.12891,2.42435,7.00403,2.42435
			c2.87311,0,5.83661-0.517,8.89044-1.54898c3.05176-1.03302,6.24011-2.67236,9.56409-4.91602
			c3.32074-2.2457,6.28418-5.50238,8.89038-9.76581c2.60303-4.26651,4.39789-9.22775,5.38782-14.88458
			c5.65686-27.56766,8.48584-45.30438,8.48584-53.20694c0-1.97459-0.13446-3.50256-0.4035-4.57973L914.60974,243.35938z
			 M882.68518,321.82306c-2.42438,2.28986-4.64703,3.4353-6.66785,3.4353s-3.0307-0.85437-3.0307-2.55994
			c0-2.15533,1.84003-4.15411,5.52338-5.9942c3.68018-1.84113,7.00409-2.94241,9.96759-3.29971
			C887.03998,316.72528,885.1095,319.53317,882.68518,321.82306z M893.32635,289.42767
			c-3.05389,1.70663-5.70312,2.5589-7.94672,2.5589c-3.41437,0-5.11884-3.7926-5.11884-11.38202
			c0-7.58734,1.12128-14.50104,3.367-20.74435c2.24359-6.2401,5.29749-9.36121,9.16052-9.36121
			c1.43549,0,3.41113,0.53911,5.92688,1.61626C897.63702,261.90417,895.84003,274.34131,893.32635,289.42767z"/>
		<path class="st0" d="M978.26868,289.42767l-1.61627,0.80814c-3.05487,1.61627-4.94012,2.42441-5.65784,2.42441
			c-0.71985,0-1.07721-1.48178-1.07721-4.44525c0-2.96344,1.03094-8.46271,3.09802-16.50082
			c2.0639-8.0361,3.09796-13.82745,3.09796-17.37627c0-3.54674-0.87537-6.39879-2.6272-8.5531
			c-1.75079-2.15536-4.3338-3.23354-7.745-3.23354c-5.47821,0-11.85382,2.65031-19.12799,7.94775
			c5.02838-21.37164,7.54315-35.02257,7.54315-40.94948c0-3.32077-0.4035-5.38785-1.21161-6.19598
			c-6.19598,0-12.79657,1.21271-19.8017,3.6371c0.53912,1.25789,0.80817,3.36702,0.80817,6.33047
			c0,7.99399-2.67242,23.25905-8.01404,45.79828c-5.34369,22.54233-8.01501,35.7424-8.01501,39.60226
			c0,1.16858,0.04413,2.51578,0.13446,4.04169c9.06909,0,15.49103-0.71777,19.26257-2.1554
			c0-6.466,2.46851-20.56354,7.40869-42.29669c3.50256-1.9736,6.41876-2.96352,8.75592-2.96352
			c1.88525,0,2.82794,1.14546,2.82794,3.43532s-1.00995,7.7681-3.03076,16.43365
			c-2.01978,8.66656-3.03076,14.63766-3.03076,17.91531c0,3.27872,0.89642,5.88278,2.69452,7.81219
			c1.79486,1.93048,4.19611,2.89627,7.20581,2.89627c3.00763,0,6.30841-0.8985,9.90137-2.69342
			c3.58978-1.79593,6.06146-3.23355,7.40869-4.3107c1.34619-1.07822,2.42438-1.97458,3.23254-2.69443L978.26868,289.42767z"/>
	</g>
	<path class="st0" d="M76.20561,179.60304h-0.00005L44.87293,284.77597c-7.07648,23.75333,10.71731,47.621,35.50233,47.621h0.00005
		l30.26124-107.31078C117.07337,202.26028,99.92175,179.60304,76.20561,179.60304z"/>
	<path class="st0" d="M239.52042,179.60304h-0.00005c-28.0376,0-52.74445,18.4194-60.74959,45.28992l-32.0271,107.50401h0.00005
		c29.39049,0,55.1987-19.53693,63.17561-47.82419L239.52042,179.60304z"/>
	<path class="st0" d="M181.49147,179.60303c-28.03761,0-52.74443,18.4194-60.74956,45.28993L88.7148,332.39694h49.68939
		l43.08731-152.79391H181.49147z M148.91904,211.94003c-2.77405,0-5.02287-2.24883-5.02287-5.02292
		c0-2.77406,2.24883-5.02289,5.02287-5.02289c2.77409,0,5.02292,2.24883,5.02292,5.02289
		C153.94196,209.69121,151.69313,211.94003,148.91904,211.94003z"/>
</g>
</svg>
