<?xml version="1.0" encoding="utf-8"?>
<!-- Generator: Adobe Illustrator 24.1.2, SVG Export Plug-In . SVG Version: 6.00 Build 0)  -->
<svg version="1.1" id="Layer_1" xmlns="http://www.w3.org/2000/svg" xmlns:xlink="http://www.w3.org/1999/xlink" x="0px" y="0px"
	 viewBox="0 0 1024 512" style="enable-background:new 0 0 1024 512;" xml:space="preserve">
<style type="text/css">
	.st0{fill:#FFFFFF;}
</style>
<g>
	<path class="st0" d="M248.9494,200.99744c0-7.63776-1.43689-14.29944-4.30627-19.98621
		c-2.87128-5.68805-6.31177-8.53149-10.31824-8.53149l-3.57489,2.27551c-2.38385,1.40839-5.30835,3.98047-8.77423,7.71759
		c-3.46832,3.73712-6.28387,7.93695-8.44965,12.59314c9.20648,11.48389,13.81195,21.61133,13.81195,30.38617
		c-0.97485,8.88391-3.44049,18.0365-7.39374,27.46045c-3.95514,9.42517-8.2868,17.06165-12.99878,22.91199
		c-4.71259,5.84906-8.72162,8.77356-12.02454,8.77356c-3.30548,0-4.95599-2.84338-4.95599-8.53015
		c0-5.68683,1.08136-17.30505,3.24969-34.8548c2.16583-17.54846,3.24969-29.8703,3.24969-36.96674
		c0-7.09265-0.59644-12.53607-1.7868-16.3302v-0.16229c-12.56775,1.51868-21.61133,3.73712-27.13647,6.66296
		c0,0.10901,0.24402,0.97479,0.73145,2.59869c0.48743,1.62518,0.75677,2.54675,0.81256,2.76355
		c0.05322,0.21802,0.26874,1.03064,0.64966,2.43646c0.37842,1.40967,0.59454,2.51886,0.65033,3.33148
		c0.05328,0.81256,0.16229,2.03082,0.32452,3.65594c0.1629,1.62518,0.26941,3.30615,0.3252,5.03778
		c0.05322,1.73291,0.08112,4.98322,0.08112,9.74841c0,4.76898-1.19287,19.39294-3.57483,43.87305
		c-2.70905,4.11865-6.03986,7.93695-9.9931,11.45599c-3.95581,3.52161-6.96149,5.27985-9.01825,5.27985
		c-3.46777,0-5.1994-3.19324-5.1994-9.58612c0-6.39038,0.40631-15.84344,1.21826-28.35541
		c0.81256-12.51074,1.21887-21.79901,1.21887-27.86609c0-20.68976-7.96167-31.03656-23.88623-31.03656
		c-10.83356,0-20.14844,3.71179-27.94849,11.13147c-7.79938,7.42102-11.6994,15.08539-11.6994,22.99188
		c0,9.64319,3.5191,17.33295,10.56232,23.07428c7.04004,5.74255,15.76166,9.2616,26.16107,10.56097l-0.97485,27.62396
		c0,6.17487,1.73102,11.3736,5.19934,15.59875c3.46582,4.22516,7.79938,6.33716,12.99939,6.33716
		c5.1994,0,10.39941-1.8432,15.59882-5.52454c5.20001-3.68134,10.12805-8.7749,14.7868-15.27429
		c0.10645,6.06842,1.62512,11.04907,4.54968,14.94977c2.92517,3.89935,6.3371,5.84906,10.23712,5.84906
		c7.58136,0,15.57086-3.92474,23.96735-11.78058c8.39392-7.85321,15.70587-17.30505,21.93652-28.35413
		c6.22742-11.05029,11.39954-22.55829,15.51764-34.53021C246.89008,218.43939,248.9494,208.63391,248.9494,200.99744z
		 M119.60645,244.62579c-7.25873,0-13.62372-2.05621-19.09247-6.17487c-5.47131-4.11487-8.20569-9.31488-8.20569-15.59875
		c0-6.28137,2.30023-11.37488,6.9057-15.27423c4.60291-3.89941,8.66516-5.84906,12.18677-5.84906
		c3.5191,0,5.90295,1.2182,7.14972,3.65594c1.2442,2.43646,1.86853,7.01532,1.86853,13.73022
		C120.41901,225.83246,120.14709,234.33606,119.60645,244.62579z"/>
	<path class="st0" d="M291.32532,235.85095c-4.11804-3.14008-9.37128-4.71198-15.76166-4.71198
		c-10.39935,0-19.6889,3.92853-27.8667,11.78052c-8.18097,7.85577-12.26855,18.55243-12.26855,32.09253
		c0,9.42389,2.16583,16.79163,6.5,22.09814c4.33099,5.30902,10.23651,7.96228,17.71136,7.96228s14.3526-1.73419,20.63647-5.20001
		c2.27484-1.29938,4.71198-2.92456,7.31195-4.87427c2.60004-1.94965,4.33167-3.51904,5.1994-4.71191l-3.89935-5.20001
		l-2.43774,1.94965c-1.62457,1.30066-3.89941,2.60004-6.82458,3.9007c-2.9245,1.29932-5.68677,1.94965-8.2868,1.94965
		c-7.58386,0-11.75513-5.091-12.51196-15.27423l3.90002-0.48804c6.39038-0.97485,13.43103-3.35681,21.12396-7.14972
		c3.79034-1.94971,7.01215-4.71198,9.66791-8.2868c2.65326-3.57483,3.98114-7.98761,3.98114-13.24341
		C297.50018,243.19202,295.44086,238.99475,291.32532,235.85095z M271.82654,262.66229
		c-3.24969,3.68384-7.63708,6.01257-13.16162,6.98743c0-6.06586,1.10919-12.59308,3.33081-19.58051
		c2.21906-6.98749,5.38763-10.47992,9.50568-10.47992c3.46582,0,5.20001,2.92456,5.20001,8.77362
		C276.70142,254.2132,275.07623,258.98096,271.82654,262.66229z"/>
	<path class="st0" d="M397.42987,219.27734c3.46521-4.7652,5.1994-9.42395,5.1994-13.97363s-2.30273-8.61261-6.9057-12.18744
		c-4.60547-3.57483-11.07758-5.3623-19.4176-5.3623c-8.3432,0-15.84283,2.38452-22.50507,7.14972
		c-6.66229,4.76776-9.9931,11.26837-9.9931,19.49939c0,5.09229,1.6499,10.91473,4.95599,17.46735
		c3.30292,6.55518,6.90564,12.45874,10.80566,17.71198c3.89935,5.2558,7.49957,10.88684,10.80566,16.89813
		c3.30292,6.01257,4.95599,11.07825,4.95599,15.19312c0,7.47546-3.52161,11.32159-10.56226,11.53711
		c-4.76776-12.34967-9.91199-20.31073-15.43652-23.88556c-3.14319,0.97485-6.66229,3.6839-10.56165,8.12457
		c-3.90002,4.44189-6.44678,8.44904-7.63715,12.02386c0.54065,2.70905,3.27509,5.98724,8.20569,9.83087
		c4.9281,3.84357,11.18408,5.76794,18.76794,5.76794c11.26459,0,20.85205-3.03107,28.76044-9.09943
		c7.90649-6.0658,11.8623-14.29938,11.8623-24.69812c0-4.11615-1.57196-9.42517-4.71259-15.92456
		c-3.14325-6.49939-5.63361-11.10236-7.47424-13.81134c-1.84387-2.70648-3.4126-4.92871-4.71259-6.6629l5.20001-4.22394
		C390.49573,227.83667,393.96155,224.04504,397.42987,219.27734z M380.61163,222.68988
		c-2.33063,1.73419-4.03693,2.87134-5.11829,3.4126l-2.43707-3.08807c-1.51868-2.05615-3.06207-4.6308-4.63147-7.71759
		c-1.57129-3.08807-2.35596-5.79456-2.35596-8.12457c0-2.32867,1.21887-4.3316,3.65594-6.01257
		c2.43774-1.67841,5.46875-2.51886,9.09943-2.51886c3.62805,0,6.74341,0.75934,9.34338,2.27545
		c2.60004,1.51746,3.90002,3.38727,3.90002,5.60571c0,2.22095-0.59711,4.33417-1.78741,6.3371
		c-1.19354,2.00543-2.51892,3.71173-3.98114,5.1189C384.83679,219.38635,382.94037,220.95825,380.61163,222.68988z"/>
	<path class="st0" d="M598.3808,231.13898c-4.00842,0-7.90906,1.62512-11.6994,4.87549
		c-3.79291,3.24902-6.28387,5.84906-7.47424,7.79871c0-5.08972-0.65033-9.04358-1.94971-11.86163
		c-12.89349,0-22.26166,0.81256-28.11072,2.43774l-0.16351,2.11194l1.46289,1.94971
		c3.03101,4.00964,4.54968,7.69354,4.54968,11.05035c0,1.94965-1.46289,9.69519-4.38739,23.23523
		c-1.94263,8.99548-3.23627,15.66949-3.88873,20.05139l-2.70831-5.26392l-1.94965,0.97485
		c-4.11743,2.05865-6.49939,3.08679-7.14972,3.08679c-0.86835,0-1.29938-2.08411-1.29938-6.25598
		c0-4.16815,0.81262-11.15558,2.43646-20.96106c1.62518-9.80298,3.79163-19.19897,6.50067-28.19189
		c-8.55933-3.03229-15.38324-4.54968-20.47424-4.54968c-0.97485,2.60004-1.5719,4.00842-1.78741,4.22394
		c-5.63354-3.14008-11.48328-4.71198-17.54907-4.71198c-8.44971,0-15.65454,4.19983-21.61139,12.59308
		c-1.97601,2.78461-3.61676,5.91302-4.93726,9.37018c-3.3562,0.5788-6.68311,0.95105-9.97888,1.11096
		c0-16.14001-4.28027-24.21136-12.83649-24.21136c-2.27484,0-4.33417,0.4881-6.17487,1.46295l-5.84967-0.32581
		c-11.37421,0-20.28601,4.33417-26.72961,13c-6.44678,8.66711-9.66858,19.01135-9.66858,31.03528
		c0,9.42389,2.11261,16.76501,6.33716,22.01703c4.22516,5.2558,10.07483,7.88116,17.54907,7.88116
		c9.8562,0,17.92749-4.19604,24.21136-12.59314c6.28131-8.39325,10.45264-18.27991,12.51196-29.65479l3.24969-0.64905
		c1.79144-0.35193,3.46094-0.71973,5.03534-1.09991c-1.10144,5.10999-1.6557,10.7818-1.6557,17.02325
		c0,9.31866,1.92175,16.14258,5.76788,20.47424c3.84424,4.33417,8.55621,6.49939,14.13715,6.49939
		c5.57782,0,11.8338-3.03107,18.76733-9.09943c1.08197,6.06836,4.98132,9.09943,11.70001,9.09943
		c3.4646,0,7.36523-1.11176,11.6994-3.33148c4.33038-2.21844,7.28406-3.98053,8.85474-5.27985
		c1.40997-1.16852,2.56812-2.15033,3.49939-2.96948c-0.26215,1.86096-0.39612,3.26361-0.39612,4.18768
		c0,3.08679,0.10651,5.06567,0.32581,5.93146h1.13708c11.26459,0,18.79333-0.75677,22.58618-2.27545
		c-0.10901-0.97485-0.16223-2.65326-0.16223-5.03778c0-6.60583,2.49097-21.12329,7.47418-43.54724
		c2.05621-2.27417,4.44067-3.89935,7.14972-4.87421c0.86584,0,2.16522,1.46161,3.89935,4.38745
		c1.73169,2.9245,2.65326,4.38739,2.76227,4.38739c2.60004-0.43225,5.28119-1.56934,8.04346-3.41254
		c2.76227-1.8407,4.60291-3.2757,5.52454-4.30634c0.91907-1.02808,1.65051-1.86853,2.19434-2.51886
		C607.15564,236.23248,604.23108,231.13898,598.3808,231.13898z M449.88129,282.32397
		c-3.63062,5.84906-7.71826,8.77484-12.26794,8.77484c-5.95935,0-8.93713-5.85034-8.93713-17.54974
		c0-8.23102,1.19037-15.54297,3.57489-21.93585c2.38129-6.39038,4.9281-10.45325,7.63708-12.18744
		c0.32452-0.21552,0.81195-0.32452,1.46228-0.32452c0.64966,0,1.19098,0.10901,1.62518,0.32452l-0.81262,1.62512
		c-1.409,3.03485-2.11255,6.28387-2.11255,9.74976c0,8.66833,5.79388,12.99872,17.38678,12.99872
		C456.02765,270.30005,453.5094,276.47363,449.88129,282.32397z M510.53839,288.17303
		c-3.24969,2.05994-6.17426,3.08807-8.77423,3.08807c-4.00903,0-6.01196-4.60297-6.01196-13.81134
		c0-9.20715,1.3811-17.63086,4.14337-25.26733c2.76227-7.63776,6.09308-11.45605,9.9931-11.45605
		c2.27484,0,5.03711,0.70612,8.28748,2.112C513.84192,257.78809,511.29517,272.90002,510.53839,288.17303z"/>
	<path class="st0" d="M782.91779,217.32764c3.79034,0,7.23083-1.35388,10.31763-4.06293
		c3.08807-2.70648,4.63208-5.82117,4.63208-9.34277c0-3.51904-1.08514-6.36249-3.25031-8.53021
		c-2.16772-2.16644-5.20001-3.25031-9.09943-3.25031c-3.89935,0-7.33984,1.35645-10.31885,4.06293
		c-2.98035,2.70898-4.46735,5.84906-4.46735,9.42389s1.08136,6.41827,3.24908,8.53021
		C776.14709,216.27167,779.12488,217.32764,782.91779,217.32764z"/>
	<path class="st0" d="M792.66748,288.49884c-4.33417,2.05865-6.8252,3.08679-7.47424,3.08679
		c-0.97607,0-1.46289-1.7063-1.46289-5.11761c0-3.4126,1.46289-10.66876,4.38745-21.7749
		c2.9245-11.10229,4.38739-18.93024,4.38739-23.47992s-0.70605-7.63647-2.11316-9.26166
		c-12.89233,0-22.20721,0.81256-27.94849,2.43774l-0.16229,2.11194l1.46289,1.94971
		c0.56238,0.80084,1.05267,1.61548,1.50275,2.43781c-5.08813-1.03357-12.27979-1.90106-21.60046-2.6001
		c5.30524-23.93878,7.961-39.26624,7.961-45.98492c0-2.16522-0.16223-3.68134-0.48682-4.54974
		c-8.77484,0-17.49646,1.68097-26.16101,5.03778c0.21552,0.97485,0.32452,2.38324,0.32452,4.22388
		c0,9.96906-1.8432,23.50909-5.52454,40.62274c-8.01807,0.43481-15.54553,1.35638-22.58618,2.76349
		c0.86578-7.14966,1.3006-13.26874,1.3006-18.36224c0-21.5556-7.09644-32.33594-21.2868-32.33594
		c-7.04321,0-14.35516,2.14111-21.93591,6.41827c-7.58447,4.28094-13.32452,8.80273-17.22394,13.56921l4.06165,5.84906
		c3.89941-3.35681,8.06879-6.03796,12.51196-8.04346c4.44067-2.00293,8.01556-3.00562,10.72455-3.00562
		c2.70654,0,4.68408,1.29938,5.93024,3.89935c1.24481,2.60004,1.86853,7.06854,1.86853,13.4057
		c0,6.3371-0.48676,14.4895-1.46161,24.45471c-10.94263,4.65875-19.98621,10.80573-27.13593,18.4422
		c-7.14966,7.63776-10.72455,15.79016-10.72455,24.45599c0,6.06714,1.78741,10.96796,5.3623,14.70508
		c3.57483,3.73712,8.1778,5.60565,13.81134,5.60565c5.63098,0,10.83099-1.65302,15.59875-4.95532
		c4.76648-3.30359,8.82812-7.77216,12.18744-13.4057c6.49939-11.1568,11.31781-24.3736,14.46167-39.64789
		c5.52454-1.51611,12.88971-2.38196,22.09814-2.59998c-4.87421,21.66711-7.31195,34.96381-7.31195,39.89124
		c0,4.93127,1.3006,8.88391,3.90063,11.86169c2.59875,2.979,6.74274,4.46857,12.42957,4.46857
		c5.68805,0,12.43085-2.38074,20.23083-7.14972l-2.43774-6.3371c-1.62512,0.54382-3.14258,0.81256-4.54968,0.81256
		c-2.59998,0-3.89935-2.68115-3.89935-8.0434c0-5.3623,1.89392-17.14282,5.68677-35.34161
		c10.28973,0.65033,18.95557,2.05872,25.99878,4.22522c0.1983-0.33429,0.37866-0.6582,0.55792-0.98145
		c-0.23248,3.35461-1.57117,9.60547-4.02118,18.77325c-2.70905,10.13129-4.06293,17.17072-4.06293,21.12457
		c0,3.95514,1.08258,7.09644,3.25037,9.42389c2.16516,2.32874,5.14423,3.49377,8.93707,3.49377
		c3.79041,0,7.90649-1.11176,12.34973-3.33148c4.44067-2.21844,7.47424-3.98053,9.09937-5.27985
		c1.62518-1.30066,2.92456-2.38202,3.89941-3.25037l-2.76227-5.68677L792.66748,288.49884z M661.58844,284.92395
		c-3.35938,5.95807-6.77197,8.93713-10.23779,8.93713c-1.5174,0-2.84338-0.65033-3.98047-1.94971
		c-1.13715-1.3006-1.7063-3.1413-1.7063-5.52576c0-5.08972,2.49097-10.3988,7.47418-15.92334
		c4.98199-5.52454,10.50653-9.5874,16.57489-12.18744C667.65295,270.08325,664.94397,278.96716,661.58844,284.92395z"/>
	<path class="st0" d="M862.04999,232.11383c-6.39288,0-12.34973,0.97485-17.87427,2.92578
		c-5.20001-2.60004-10.45581-3.90063-15.76227-3.90063c-9.42395,0-17.0072,4.25305-22.74847,12.75537
		c-5.74255,8.5061-8.61133,19.14954-8.61133,31.93024c0,9.74969,1.81274,16.84491,5.44342,21.28558
		c3.62805,4.44318,8.34003,6.6629,14.13586,6.6629c5.79456,0,11.83502-2.38196,18.1189-7.14972l-2.43774,12.99878l-6.98743,1.62512
		c-4.54968,1.19037-9.15521,3.4126-13.81134,6.66168c-4.65875,3.25031-6.98743,6.68823-6.98743,10.31885
		c0,3.62811,1.0813,6.41827,3.25031,8.36798c2.16516,1.94965,4.98071,2.9245,8.44904,2.9245
		c3.46582,0,7.04071-0.62366,10.72455-1.86853c3.68134-1.24615,7.52747-3.22369,11.53717-5.93024
		c4.00586-2.70898,7.58069-6.63751,10.72455-11.78052c3.14001-5.14673,5.30518-11.13147,6.49933-17.95532
		c6.82391-33.255,10.23651-54.65088,10.23651-64.18378c0-2.38196-0.16223-4.22516-0.48676-5.52454L862.04999,232.11383z
		 M823.53925,326.76489c-2.92456,2.76227-5.60571,4.14404-8.04346,4.14404s-3.65594-1.03064-3.65594-3.08807
		c0-2.59998,2.21967-5.01111,6.6629-7.23083c4.43939-2.22095,8.44904-3.54944,12.02393-3.98047
		C828.79248,320.61542,826.46375,324.00262,823.53925,326.76489z M836.37573,287.68622
		c-3.6839,2.05872-6.8797,3.08679-9.58618,3.08679c-4.11871,0-6.17487-4.57501-6.17487-13.73016
		c0-9.15265,1.3526-17.49268,4.06165-25.02399c2.70648-7.52747,6.39038-11.29248,11.05035-11.29248
		c1.73163,0,4.11487,0.65033,7.14966,1.94971C841.57574,254.4845,839.40802,269.48749,836.37573,287.68622z"/>
	<path class="st0" d="M938.84204,287.68622l-1.94971,0.97485c-3.68512,1.94971-5.95935,2.92456-6.82513,2.92456
		c-0.86835,0-1.29938-1.78748-1.29938-5.3623s1.24359-10.20862,3.73712-19.90503c2.48969-9.69397,3.73712-16.68011,3.73712-20.96106
		c0-4.27844-1.05603-7.71887-3.16925-10.31763c-2.11194-2.60004-5.22784-3.90063-9.34277-3.90063
		c-6.6084,0-14.29938,3.19708-23.07422,9.5874c6.0658-25.7807,9.09937-42.24786,9.09937-49.39752
		c0-4.00586-0.48676-6.49939-1.46161-7.47424c-7.47424,0-15.43652,1.46289-23.88684,4.38745
		c0.65033,1.5174,0.97485,4.06165,0.97485,7.63647c0,9.64319-3.22375,28.0575-9.6673,55.24664
		c-6.44617,27.19293-9.66858,43.11621-9.66858,47.7724c0,1.40967,0.05322,3.03479,0.16223,4.87549
		c10.94006,0,18.68683-0.86584,23.23651-2.60004c0-7.79999,2.97778-24.80591,8.93713-51.02271
		c4.22516-2.38074,7.74298-3.57489,10.56232-3.57489c2.27417,0,3.41132,1.38177,3.41132,4.14404s-1.21826,9.37067-3.65601,19.82397
		c-2.43646,10.45453-3.65601,17.65747-3.65601,21.61133c0,3.95514,1.08136,7.09644,3.25037,9.42389
		c2.16516,2.32874,5.06183,3.49377,8.69244,3.49377c3.62811,0,7.60986-1.08386,11.94403-3.24908
		c4.33038-2.16644,7.31201-3.90063,8.93713-5.20001c1.6239-1.30066,2.92456-2.38196,3.89941-3.25031L938.84204,287.68622z"/>
</g>
</svg>
